<svg xmlns="http://www.w3.org/2000/svg" width="22" height="22" viewBox="0 0 22 22" fill="none">
<path class="fillPath" d="M4.58333 9.16797C3.575 9.16797 2.75 9.99297 2.75 11.0013C2.75 12.0096 3.575 12.8346 4.58333 12.8346C5.59167 12.8346 6.41667 12.0096 6.41667 11.0013C6.41667 9.99297 5.59167 9.16797 4.58333 9.16797Z" fill="#2C3659"></path>
<path class="fillPath" d="M17.4168 9.16797C16.4085 9.16797 15.5835 9.99297 15.5835 11.0013C15.5835 12.0096 16.4085 12.8346 17.4168 12.8346C18.4252 12.8346 19.2502 12.0096 19.2502 11.0013C19.2502 9.99297 18.4252 9.16797 17.4168 9.16797Z" fill="#2C3659"></path>
<path class="fillPath" d="M10.9998 9.16797C9.9915 9.16797 9.1665 9.99297 9.1665 11.0013C9.1665 12.0096 9.9915 12.8346 10.9998 12.8346C12.0082 12.8346 12.8332 12.0096 12.8332 11.0013C12.8332 9.99297 12.0082 9.16797 10.9998 9.16797Z" fill="#2C3659"></path>
</svg>