<svg xmlns="http://www.w3.org/2000/svg" width="18" height="19" viewBox="0 0 18 19" fill="none">
<path d="M6.30147 18.5C5.47544 18.4962 4.65844 18.3368 3.89804 18.0311C3.13763 17.7253 2.44901 17.2793 1.87224 16.7191C1.29981 16.205 0.839976 15.589 0.51906 14.9064C0.198144 14.2238 0.0224437 13.488 0.00201318 12.7409C-0.0184173 11.9939 0.116823 11.2504 0.399996 10.553C0.683168 9.85552 1.10871 9.21783 1.65228 8.67638L9.011 1.63785C9.40397 1.26619 9.87236 0.973853 10.3879 0.778473C10.9034 0.583092 11.4554 0.488726 12.0105 0.501072C12.6051 0.502991 13.1933 0.61706 13.7409 0.836628C14.2885 1.0562 14.7845 1.37687 15.1999 1.77994C16.0268 2.53423 16.5063 3.56706 16.5344 4.65426C16.5624 5.74145 16.1368 6.79526 15.3499 7.58697L7.95119 14.6255C7.71421 14.8515 7.43221 15.0307 7.12155 15.1527C6.8109 15.2747 6.47777 15.337 6.1415 15.336C5.77824 15.3364 5.41856 15.2679 5.0837 15.1345C4.74884 15.0011 4.44559 14.8055 4.19184 14.5592C3.68466 14.0939 3.39175 13.4578 3.37678 12.7891C3.3618 12.1204 3.62596 11.473 4.11185 10.9878L10.9407 4.48926C11.135 4.36696 11.3684 4.31291 11.6004 4.33647C11.8323 4.36003 12.0483 4.4597 12.2109 4.61824C12.3735 4.77678 12.4724 4.9842 12.4906 5.20458C12.5088 5.42496 12.445 5.64442 12.3104 5.82497L5.48162 12.3235C5.36774 12.4535 5.31232 12.6207 5.32728 12.789C5.34224 12.9573 5.42639 13.1134 5.5616 13.2235C5.70229 13.3577 5.89195 13.4357 6.09151 13.4414C6.16543 13.4424 6.23883 13.4295 6.30747 13.4035C6.37612 13.3775 6.43864 13.3388 6.49144 13.2898L13.8802 6.25126C14.2949 5.81472 14.5117 5.24107 14.4836 4.65433C14.4555 4.06758 14.1849 3.51486 13.7302 3.11565C13.3078 2.7002 12.7335 2.45392 12.1253 2.42749C11.5172 2.40106 10.9215 2.59648 10.4607 2.97356L3.07203 9.97419C2.71274 10.3398 2.43331 10.7692 2.2498 11.2375C2.0663 11.7059 1.98236 12.204 2.0028 12.7032C2.02325 13.2024 2.14767 13.6928 2.36892 14.1463C2.59017 14.5998 2.90388 15.0073 3.292 15.3455C3.68121 15.7277 4.14692 16.0327 4.66192 16.2425C5.17693 16.4523 5.7309 16.5628 6.29147 16.5675C6.77481 16.5712 7.25416 16.4844 7.70198 16.3121C8.14981 16.1398 8.55729 15.8853 8.90102 15.5633L16.2897 8.52481C16.3823 8.43648 16.4923 8.36629 16.6135 8.31825C16.7347 8.27021 16.8647 8.24526 16.9961 8.24482C17.1274 8.24438 17.2576 8.26846 17.3792 8.31569C17.5007 8.36292 17.6113 8.43236 17.7045 8.52007C17.7977 8.60777 17.8718 8.71202 17.9225 8.82684C17.9732 8.94167 17.9995 9.06484 18 9.18931C18.0005 9.31378 17.975 9.43712 17.9252 9.55229C17.8754 9.66745 17.8021 9.77219 17.7095 9.86052L10.3208 16.899C9.79617 17.4049 9.1707 17.8069 8.48071 18.0817C7.79072 18.3566 7.04996 18.4987 6.30147 18.5Z" fill="#64748B"></path>
</svg>