<svg xmlns="http://www.w3.org/2000/svg" width="20" height="20" viewBox="0 0 20 20" fill="none">
<path d="M5.5 2.28571C5.79826 2.28611 6.08421 2.42169 6.29512 2.66272C6.50602 2.90376 6.62466 3.23056 6.625 3.57143V16.4286C6.62466 16.7694 6.50602 17.0962 6.29512 17.3373C6.08421 17.5783 5.79826 17.7139 5.5 17.7143H3.25C2.95174 17.7139 2.66579 17.5783 2.45488 17.3373C2.24398 17.0962 2.12534 16.7694 2.125 16.4286V3.57143C2.12534 3.23056 2.24398 2.90376 2.45488 2.66272C2.66579 2.42169 2.95174 2.28611 3.25 2.28571H5.5ZM5.5 1H3.25C2.65326 1 2.08097 1.27092 1.65901 1.75315C1.23705 2.23539 1 2.88944 1 3.57143V16.4286C1 17.1106 1.23705 17.7646 1.65901 18.2468C2.08097 18.7291 2.65326 19 3.25 19H5.5C6.09674 19 6.66903 18.7291 7.09099 18.2468C7.51295 17.7646 7.75 17.1106 7.75 16.4286V3.57143C7.75 2.88944 7.51295 2.23539 7.09099 1.75315C6.66903 1.27092 6.09674 1 5.5 1ZM19 4.21429C19 4.12985 18.9855 4.04623 18.9573 3.96822C18.929 3.8902 18.8876 3.81931 18.8353 3.75961C18.7831 3.6999 18.7211 3.65255 18.6528 3.62026C18.5845 3.58797 18.5114 3.57138 18.4375 3.57143H10.5625C10.4133 3.57143 10.2702 3.63916 10.1648 3.75972C10.0593 3.88028 10 4.04379 10 4.21429C10 4.38478 10.0593 4.5483 10.1648 4.66885C10.2702 4.78941 10.4133 4.85714 10.5625 4.85714H18.4375C18.5114 4.85719 18.5845 4.8406 18.6528 4.80831C18.7211 4.77602 18.7831 4.72867 18.8353 4.66896C18.8876 4.60926 18.929 4.53837 18.9573 4.46035C18.9855 4.38234 19 4.29872 19 4.21429ZM19 8.07143C19 7.98699 18.9855 7.90338 18.9573 7.82536C18.929 7.74734 18.8876 7.67646 18.8353 7.61675C18.7831 7.55705 18.7211 7.5097 18.6528 7.47741C18.5845 7.44512 18.5114 7.42852 18.4375 7.42857H10.5625C10.4133 7.42857 10.2702 7.4963 10.1648 7.61686C10.0593 7.73742 10 7.90093 10 8.07143C10 8.24192 10.0593 8.40544 10.1648 8.526C10.2702 8.64656 10.4133 8.71429 10.5625 8.71429H18.4375C18.5114 8.71433 18.5845 8.69774 18.6528 8.66545C18.7211 8.63316 18.7831 8.58581 18.8353 8.52611C18.8876 8.4664 18.929 8.39551 18.9573 8.3175C18.9855 8.23948 19 8.15586 19 8.07143ZM19 11.9286C19 11.8441 18.9855 11.7605 18.9573 11.6825C18.929 11.6045 18.8876 11.5336 18.8353 11.4739C18.7831 11.4142 18.7211 11.3668 18.6528 11.3345C18.5845 11.3023 18.5114 11.2857 18.4375 11.2857H10.5625C10.4133 11.2857 10.2702 11.3534 10.1648 11.474C10.0593 11.5946 10 11.7581 10 11.9286C10 12.0991 10.0593 12.2626 10.1648 12.3831C10.2702 12.5037 10.4133 12.5714 10.5625 12.5714H18.4375C18.5114 12.5715 18.5845 12.5549 18.6528 12.5226C18.7211 12.4903 18.7831 12.443 18.8353 12.3832C18.8876 12.3235 18.929 12.2527 18.9573 12.1746C18.9855 12.0966 19 12.013 19 11.9286ZM19 15.7857C19 15.7013 18.9855 15.6177 18.9573 15.5396C18.929 15.4616 18.8876 15.3907 18.8353 15.331C18.7831 15.2713 18.7211 15.224 18.6528 15.1917C18.5845 15.1594 18.5114 15.1428 18.4375 15.1429H10.5625C10.4133 15.1429 10.2702 15.2106 10.1648 15.3311C10.0593 15.4517 10 15.6152 10 15.7857C10 15.9562 10.0593 16.1197 10.1648 16.2403C10.2702 16.3608 10.4133 16.4286 10.5625 16.4286H18.4375C18.5114 16.4286 18.5845 16.412 18.6528 16.3797C18.7211 16.3474 18.7831 16.3001 18.8353 16.2404C18.8876 16.1807 18.929 16.1098 18.9573 16.0318C18.9855 15.9538 19 15.8701 19 15.7857Z" fill="#64748B" stroke="#64748B" stroke-width="0.5"></path>
</svg>