<svg xmlns="http://www.w3.org/2000/svg" width="4" height="16" viewBox="0 0 4 16" fill="none">
<path d="M2.00033 8.83073C2.46056 8.83073 2.83366 8.45763 2.83366 7.9974C2.83366 7.53716 2.46056 7.16406 2.00033 7.16406C1.54009 7.16406 1.16699 7.53716 1.16699 7.9974C1.16699 8.45763 1.54009 8.83073 2.00033 8.83073Z" stroke="#64748B" stroke-width="2" stroke-linecap="round" stroke-linejoin="round"></path>
<path d="M2.00033 14.6667C2.46056 14.6667 2.83366 14.2936 2.83366 13.8333C2.83366 13.3731 2.46056 13 2.00033 13C1.54009 13 1.16699 13.3731 1.16699 13.8333C1.16699 14.2936 1.54009 14.6667 2.00033 14.6667Z" stroke="#64748B" stroke-width="2" stroke-linecap="round" stroke-linejoin="round"></path>
<path d="M2.00033 2.9987C2.46056 2.9987 2.83366 2.6256 2.83366 2.16536C2.83366 1.70513 2.46056 1.33203 2.00033 1.33203C1.54009 1.33203 1.16699 1.70513 1.16699 2.16536C1.16699 2.6256 1.54009 2.9987 2.00033 2.9987Z" stroke="#64748B" stroke-width="2" stroke-linecap="round" stroke-linejoin="round"></path>
</svg>