<svg width="20" height="20" viewBox="0 0 20 20" fill="none" xmlns="http://www.w3.org/2000/svg">
  <path d="M4.16667 3.33301H7.5L10 5.83301H15.8333C16.2754 5.83301 16.6993 6.0086 17.0118 6.32116C17.3244 6.63372 17.5 7.05765 17.5 7.49967V14.1663C17.5 14.6084 17.3244 15.0323 17.0118 15.3449C16.6993 15.6574 16.2754 15.833 15.8333 15.833H4.16667C3.72464 15.833 3.30072 15.6574 2.98816 15.3449C2.67559 15.0323 2.5 14.6084 2.5 14.1663V4.99967C2.5 4.55765 2.67559 4.13372 2.98816 3.82116C3.30072 3.5086 3.72464 3.33301 4.16667 3.33301" stroke="currentColor" stroke-width="1.5" stroke-linecap="round" stroke-linejoin="round"/>
  <path d="M10 8.33301V13.333" stroke="currentColor" stroke-width="1.5" stroke-linecap="round" stroke-linejoin="round"/>
  <path d="M7.5 10.833H12.5" stroke="currentColor" stroke-width="1.5" stroke-linecap="round" stroke-linejoin="round"/>
</svg> 