<svg width="19" height="19" viewBox="0 0 19 19" fill="none" xmlns="http://www.w3.org/2000/svg">
  <path d="M7.12484 3.16699H3.95817C3.52095 3.16699 3.1665 3.52143 3.1665 3.95866V7.12533C3.1665 7.56255 3.52095 7.91699 3.95817 7.91699H7.12484C7.56206 7.91699 7.9165 7.56255 7.9165 7.12533V3.95866C7.9165 3.52143 7.56206 3.16699 7.12484 3.16699Z" stroke="currentColor" stroke-width="1.5" stroke-linecap="round" stroke-linejoin="round"/>
  <path d="M15.0415 3.16699H11.8748C11.4376 3.16699 11.0832 3.52143 11.0832 3.95866V7.12533C11.0832 7.56255 11.4376 7.91699 11.8748 7.91699H15.0415C15.4787 7.91699 15.8332 7.56255 15.8332 7.12533V3.95866C15.8332 3.52143 15.4787 3.16699 15.0415 3.16699Z" stroke="currentColor" stroke-width="1.5" stroke-linecap="round" stroke-linejoin="round"/>
  <path d="M7.12484 11.0837H3.95817C3.52095 11.0837 3.1665 11.4381 3.1665 11.8753V15.042C3.1665 15.4792 3.52095 15.8337 3.95817 15.8337H7.12484C7.56206 15.8337 7.9165 15.4792 7.9165 15.042V11.8753C7.9165 11.4381 7.56206 11.0837 7.12484 11.0837Z" stroke="currentColor" stroke-width="1.5" stroke-linecap="round" stroke-linejoin="round"/>
  <path d="M15.0415 11.0837H11.8748C11.4376 11.0837 11.0832 11.4381 11.0832 11.8753V15.042C11.0832 15.4792 11.4376 15.8337 11.8748 15.8337H15.0415C15.4787 15.8337 15.8332 15.4792 15.8332 15.042V11.8753C15.8332 11.4381 15.4787 11.0837 15.0415 11.0837Z" stroke="currentColor" stroke-width="1.5" stroke-linecap="round" stroke-linejoin="round"/>
</svg> 