<svg class="SettingsIcon" xmlns="http://www.w3.org/2000/svg" width="20" height="20" viewBox="0 0 27.389 27.868"><path id="icons8-settings_1_" data-name="icons8-settings (1)" d="M12.614,2l-.683,3.516A11.079,11.079,0,0,0,8.8,7.315L5.427,6.15,2.172,11.784l2.705,2.351a11.155,11.155,0,0,0-.158,1.8,11.336,11.336,0,0,0,.158,1.8v0L2.172,20.087l3.255,5.631L8.8,24.556a11.08,11.08,0,0,0,3.13,1.8l.683,3.516h6.5l.683-3.516a11.065,11.065,0,0,0,3.127-1.8l3.377,1.165,3.252-5.631-2.7-2.354a10.314,10.314,0,0,0,0-3.6v0l2.705-2.354L26.306,6.15,22.931,7.312a11.08,11.08,0,0,0-3.13-1.8L19.119,2Zm2.3,2.787h1.91l.542,2.787,1.453.55a8.279,8.279,0,0,1,2.346,1.344l1.2.985,2.678-.92L26,11.185l-2.139,1.861.245,1.532v0a7.53,7.53,0,0,1,0,2.705l-.248,1.532L26,20.68l-.955,1.655-2.675-.923L21.16,22.4a8.263,8.263,0,0,1-2.343,1.344h0l-1.453.55-.542,2.787H14.911l-.542-2.787-1.453-.55A8.278,8.278,0,0,1,10.57,22.4l-1.2-.985-2.678.92-.955-1.652,2.142-1.864-.248-1.527v0a8.581,8.581,0,0,1-.122-1.355,8.379,8.379,0,0,1,.122-1.353l.248-1.532L5.734,11.188,6.69,9.533l2.678.923,1.2-.988a8.278,8.278,0,0,1,2.346-1.344l1.453-.55Zm.955,5.574a5.574,5.574,0,1,0,5.574,5.574A5.6,5.6,0,0,0,15.866,10.36Zm0,2.787a2.787,2.787,0,1,1-2.787,2.787A2.775,2.775,0,0,1,15.866,13.147Z" transform="translate(-2.172 -2)" fill="#7e84a3"></path></svg>